<svg xmlns="http://www.w3.org/2000/svg" xmlns:xlink="http://www.w3.org/1999/xlink" viewBox="0,0,256,256" width="480px" height="480px" fill-rule="evenodd"><g fill="#fc9029" fill-rule="evenodd" stroke="none" stroke-width="1" stroke-linecap="butt" stroke-linejoin="miter" stroke-miterlimit="10" stroke-dasharray="" stroke-dashoffset="0" font-family="none" font-weight="none" font-size="none" text-anchor="none" style="mix-blend-mode: normal"><g transform="translate(256,256) rotate(180) scale(5.33333,5.33333)"><path d="M24,4c-11.04,0 -19.99,8.954 -19.99,20c0,10.141 7.545,18.519 17.325,19.823v-4.03c0,-1.136 -0.716,-2.158 -1.793,-2.519c-5.643,-1.897 -9.68,-7.293 -9.531,-13.611c0.181,-7.692 6.444,-13.74 14.133,-13.662c7.662,0.078 13.849,6.316 13.849,14c0,0.72 -0.056,1.44 -0.164,2.151c-1.713,11.291 -16.412,17.637 -16.492,17.672c0.871,0.115 1.76,0.176 2.663,0.176c11.04,0 19.99,-8.954 19.99,-20c0,-11.046 -8.95,-20 -19.99,-20"></path></g></g></svg>