<?xml version="1.0" encoding="UTF-8" standalone="no"?>
<!-- Created with Inkscape (http://www.inkscape.org/) -->

<svg
   xmlns:dc="http://purl.org/dc/elements/1.1/"
   xmlns:cc="http://creativecommons.org/ns#"
   xmlns:rdf="http://www.w3.org/1999/02/22-rdf-syntax-ns#"
   xmlns:svg="http://www.w3.org/2000/svg"
   xmlns="http://www.w3.org/2000/svg"
   xmlns:sodipodi="http://sodipodi.sourceforge.net/DTD/sodipodi-0.dtd"
   xmlns:inkscape="http://www.inkscape.org/namespaces/inkscape"
   width="744.09448819"
   height="1052.3622047"
   id="svg2"
   version="1.1"
   inkscape:version="0.48.2 r9819"
   sodipodi:docname="New document 1">
  <defs
     id="defs4" />
  <sodipodi:namedview
     id="base"
     pagecolor="#ffffff"
     bordercolor="#666666"
     borderopacity="1.0"
     inkscape:pageopacity="0.0"
     inkscape:pageshadow="2"
     inkscape:zoom="0.5"
     inkscape:cx="375"
     inkscape:cy="520"
     inkscape:document-units="px"
     inkscape:current-layer="layer1"
     showgrid="false"
     inkscape:window-width="1366"
     inkscape:window-height="705"
     inkscape:window-x="-8"
     inkscape:window-y="-8"
     inkscape:window-maximized="1" />
  <metadata
     id="metadata7">
    <rdf:RDF>
      <cc:Work
         rdf:about="">
        <dc:format>image/svg+xml</dc:format>
        <dc:type
           rdf:resource="http://purl.org/dc/dcmitype/StillImage" />
        <dc:title></dc:title>
      </cc:Work>
    </rdf:RDF>
  </metadata>
  <g
     inkscape:label="Layer 1"
     inkscape:groupmode="layer"
     id="layer1">
    <text
       xml:space="preserve"
       style="font-size:66.84379578px;font-style:normal;font-weight:normal;line-height:125%;letter-spacing:0px;word-spacing:0px;fill:#000000;fill-opacity:1;stroke:none;font-family:Sans"
       x="209.82942"
       y="485.53961"
       id="text2985"
       sodipodi:linespacing="125%"><tspan
         sodipodi:role="line"
         id="tspan2987"
         x="209.82942"
         y="485.53961"
         style="font-size:120.31882477px;font-weight:normal;-inkscape-font-specification:Sans">Stonox</tspan></text>
    <path
       sodipodi:type="arc"
       id="path2989"
       sodipodi:cx="114"
       sodipodi:cy="401.36218"
       sodipodi:rx="16"
       sodipodi:ry="11"
       d="m 130,401.36218 a 16,11 0 1 1 -32,0 16,11 0 1 1 32,0 z" />
    <path
       sodipodi:type="arc"
       id="path2991"
       sodipodi:cx="81"
       sodipodi:cy="446.36218"
       sodipodi:rx="13"
       sodipodi:ry="12"
       d="m 94,446.36218 a 13,12 0 1 1 -26,0 13,12 0 1 1 26,0 z"
       style="fill:#917c6f" />
    <path
       sodipodi:type="arc"
       id="path2993"
       sodipodi:cx="154"
       sodipodi:cy="474.36218"
       sodipodi:rx="12"
       sodipodi:ry="12"
       d="m 166,474.36218 a 12,12 0 1 1 -24,0 12,12 0 1 1 24,0 z" />
    <path
       sodipodi:type="arc"
       id="path2995"
       sodipodi:cx="137"
       sodipodi:cy="449.36218"
       sodipodi:rx="11"
       sodipodi:ry="11"
       d="m 148,449.36218 a 11,11 0 1 1 -22,0 11,11 0 1 1 22,0 z"
       style="fill:#aa4400" />
    <path
       sodipodi:type="arc"
       id="path2997"
       sodipodi:cx="161"
       sodipodi:cy="426.36218"
       sodipodi:rx="9"
       sodipodi:ry="10"
       d="m 170,426.36218 a 9,10 0 1 1 -18,0 9,10 0 1 1 18,0 z"
       style="fill:#917c6f" />
    <path
       sodipodi:type="arc"
       id="path2999"
       sodipodi:cx="119"
       sodipodi:cy="482.36218"
       sodipodi:rx="11"
       sodipodi:ry="12"
       d="m 130,482.36218 a 11,12 0 1 1 -22,0 11,12 0 1 1 22,0 z"
       style="fill:#ff6600" />
  </g>
</svg>
