<?xml version="1.0" encoding="utf-8"?>
<!-- Generator: Adobe Illustrator 16.0.0, SVG Export Plug-In . SVG Version: 6.00 Build 0)  -->
<!DOCTYPE svg PUBLIC "-//W3C//DTD SVG 1.0//EN" "http://www.w3.org/TR/2001/REC-SVG-20010904/DTD/svg10.dtd">
<svg version="1.0" id="Layer_1" xmlns="http://www.w3.org/2000/svg" xmlns:xlink="http://www.w3.org/1999/xlink" x="0px" y="0px"
	 width="1960.905px" height="290px" viewBox="0 0 1960.905 290" enable-background="new 0 0 1960.905 290" xml:space="preserve">
<g>
	<g>
		<path fill="#00A5E3" d="M549.025,3H308.994h-284l44.02,44.02h211.58v15.975H84.988l44.02,44.02h151.586v15.975h-135.61
			l44.02,44.021h91.591v15.975h-75.615l44.021,44.02h31.595v15.975h-15.621L308.994,287h240.031
			c0-24.294,19.682-43.991,43.968-44.019V47.018C568.707,46.989,549.025,27.293,549.025,3z M331.43,242.637h-15.977V47.02h15.977
			V242.637z M522.214,240.095c-15.255,12.451-36.755,18.672-64.504,18.672c-27.362,0-48.813-6.347-64.363-19.042
			c-15.549-12.695-23.913-30.752-25.094-54.173h44.136c1.672,11.909,6.544,20.739,14.616,26.496
			c8.068,5.756,19.728,8.635,34.98,8.635c12.993,0,22.783-2.312,29.376-6.938c6.593-4.625,9.893-11.463,9.893-20.518
			c0-13.188-18.945-24.11-56.835-32.771c-0.491-0.097-0.934-0.195-1.325-0.295c-0.988-0.196-2.512-0.54-4.575-1.034
			c-20.276-4.428-34.741-9.396-43.4-14.909c-7.675-4.92-13.532-11.538-17.567-19.854c-4.034-8.316-6.052-18.131-6.052-29.449
			c0-21.158,7.185-37.369,21.553-48.638c14.37-11.267,35.132-16.901,62.295-16.901c25.388,0,45.242,6.003,59.558,18.008
			c14.322,12.008,21.871,28.932,22.66,50.779h-42.955c-0.786-10.529-4.82-18.548-12.104-24.061
			c-7.281-5.511-17.665-8.266-31.146-8.266c-11.711,0-20.74,2.287-27.083,6.863c-6.35,4.576-9.524,11.096-9.524,19.559
			c0,11.514,12.35,20.126,37.051,25.832c6.688,1.577,11.905,2.806,15.646,3.69c15.844,4.036,27.091,7.186,33.731,9.447
			c6.643,2.264,12.421,4.775,17.347,7.528c8.855,4.922,15.498,11.44,19.926,19.558c4.428,8.119,6.643,17.84,6.643,29.154
			C545.094,210.107,537.464,227.648,522.214,240.095z"/>
		<g>
			<path fill="#00A5E3" d="M1192.928,62.464c-17.447,0-33.425,7.114-45.818,18.365V62.715h-42.578V227.12h42.578v-93.743
				c2.675-19.77,26.571-38.634,47.363-38.634h1.246V62.464H1192.928z"/>
			<path fill="#00A5E3" d="M714.574,62.64v92.064c-1.365,20.421-14.133,36.427-29.695,36.427h-2.213
				c-15.558,0-28.331-16.006-29.694-36.428V62.64h-42.938v81.715v11.917v2.188c0,0.691,0.054,1.384,0.137,2.077
				c2.181,37.249,32.709,66.779,70.936,66.779h1.862c12.663,0,27.101-7.399,32.495-13.404v13.404h42.051V62.64H714.574z"/>
			<path fill="#00A5E3" d="M848.525,62.621c-11.788,0-26.744,7.335-32.813,13.403V62.621h-41.161v78.403v7.93V287h41.161v-67.777
				c9.892,5.199,21.024,8.136,32.813,8.136c40.856,0,73.977-35.104,73.977-78.405v-7.93
				C922.502,97.723,889.382,62.621,848.525,62.621z M881.343,147.003c0,21.992-14.693,39.817-32.817,39.817
				c-18.121,0-32.813-17.825-32.813-39.817v-4.026c0-21.991,14.691-39.818,32.813-39.818c18.124,0,32.817,17.827,32.817,39.818
				V147.003z"/>
			<path fill="#00A5E3" d="M1013.517,62.621c-40.855,0-73.975,35.103-73.975,78.404v7.931c0,43.301,33.119,78.405,73.975,78.405
				c30.818,0,57.228-19.982,68.345-48.384h-44.978c-6.213,6.717-14.394,10.805-23.367,10.805c-16.505,0-30.348-13.813-34.116-32.43
				h68.231h15.964h23.468c0.277-2.759,0.428-5.56,0.428-8.397v-7.931C1087.491,97.724,1054.37,62.621,1013.517,62.621z
				 M1013.517,100.201c15.37,0,28.428,11.981,33.197,28.663h-66.395C985.087,112.182,998.145,100.201,1013.517,100.201z"/>
		</g>
		<g>
			<path fill="#282829" d="M1764.502,62.621c-40.854,0-73.977,35.103-73.977,78.404v7.931c0,43.301,33.122,78.405,73.977,78.405
				c30.818,0,57.228-19.982,68.344-48.384h-44.978c-6.209,6.717-14.394,10.805-23.366,10.805c-16.506,0-30.347-13.813-34.116-32.43
				h68.232h15.964h23.467c0.278-2.759,0.428-5.56,0.428-8.397v-7.931C1838.477,97.724,1805.355,62.621,1764.502,62.621z
				 M1764.502,100.201c15.369,0,28.428,11.981,33.197,28.663h-66.395C1736.074,112.182,1749.131,100.201,1764.502,100.201z"/>
			<path fill="#282829" d="M1321.321,227.358V62.64h42.319v164.718H1321.321z"/>
			<circle fill="#282829" cx="1342.479" cy="30.652" r="21.162"/>
			<path fill="#282829" d="M1934.258,94.743V62.64h-22.78V9.491h-41.884V62.64h-22.598v32.103h22.598v78.184
				c-0.066,1.55-0.092,3.384-0.092,5.588v4.101c0,29.597,18.095,44.742,51.529,44.742v0.001h14.881v-34.928
				c-0.253,0.01-0.502,0.046-0.759,0.046c-16.079,0-23.676-6.605-23.676-27.482V94.743H1934.258z"/>
			<path fill="#282829" d="M1304.281,94.743V62.64h-22.779V9.491h-41.885V62.64h-22.598v32.103h22.598v78.184
				c-0.068,1.55-0.093,3.384-0.093,5.588v4.101c0,29.597,18.096,44.742,51.531,44.742v0.001h14.88v-34.928
				c-0.256,0.01-0.502,0.046-0.761,0.046c-16.079,0-23.673-6.605-23.673-27.482V94.743H1304.281z"/>
			<path fill="#282829" d="M1484.87,162.563c-4.995,14.259-16.642,24.257-30.214,24.257c-18.123,0-32.816-17.825-32.816-39.817
				v-4.026c0-21.991,14.693-39.818,32.816-39.818c13.572,0,25.219,10,30.214,24.259h42.627
				c-6.081-36.813-36.37-64.797-72.841-64.797c-40.856,0-73.975,35.102-73.975,78.403v7.93c0,43.301,33.118,78.405,73.975,78.405
				c36.471,0,66.76-27.984,72.84-64.796H1484.87z"/>
			<polygon fill="#282829" points="1699.048,62.64 1639.198,62.64 1587.424,114.414 1587.424,9.491 1545.104,9.491 
				1545.104,227.358 1587.424,227.358 1587.424,174.263 1602.059,159.629 1641.162,227.36 1690.029,227.36 1633.038,128.649 			"/>
		</g>
	</g>
</g>
</svg>
