<?xml version="1.0" encoding="UTF-8" standalone="no"?>
<!-- Created with Inkscape (http://www.inkscape.org/) -->

<svg
   version="1.1"
   id="svg3422"
   xml:space="preserve"
   width="800"
   height="800"
   viewBox="0 0 800 800"
   sodipodi:docname="silhouette-woman-writing-pdv.svg"
   inkscape:version="1.1.2 (b8e25be833, 2022-02-05)"
   xmlns:inkscape="http://www.inkscape.org/namespaces/inkscape"
   xmlns:sodipodi="http://sodipodi.sourceforge.net/DTD/sodipodi-0.dtd"
   xmlns="http://www.w3.org/2000/svg"
   xmlns:svg="http://www.w3.org/2000/svg"><defs
     id="defs3426"><clipPath
       clipPathUnits="userSpaceOnUse"
       id="clipPath3436"><path
         d="M 0,600 H 600 V 0 H 0 Z"
         id="path3434" /></clipPath></defs><sodipodi:namedview
     id="namedview3424"
     pagecolor="#ffffff"
     bordercolor="#666666"
     borderopacity="1.0"
     inkscape:pageshadow="2"
     inkscape:pageopacity="0.0"
     inkscape:pagecheckerboard="0"
     showgrid="false"
     inkscape:zoom="1.03875"
     inkscape:cx="400"
     inkscape:cy="400"
     inkscape:window-width="1920"
     inkscape:window-height="1018"
     inkscape:window-x="-8"
     inkscape:window-y="-8"
     inkscape:window-maximized="1"
     inkscape:current-layer="g3428" /><g
     id="g3428"
     inkscape:groupmode="layer"
     inkscape:label="silhouette-woman-writing-pdv"
     transform="matrix(1.3333333,0,0,-1.3333333,0,800)"><g
       id="g3430"><g
         id="g3432"
         clip-path="url(#clipPath3436)"><path
           d="m 342.277,588.2 c -0.038,0.326 -0.076,0.056 -0.076,-0.636 0,-0.261 0.006,-0.46 0.015,-0.59 l 0.065,0.007 c 0.036,0.332 0.035,0.881 -0.004,1.219"
           style="fill:#e01100;fill-opacity:1;fill-rule:nonzero;stroke:none"
           id="path3438" /><path
           d="m 451.059,334.829 c -0.868,1.643 -2.107,4.036 -3.196,6.163 l -2.808,-4.26 z"
           style="fill:#e6bdb6;fill-opacity:1;fill-rule:nonzero;stroke:none"
           id="path3440" /><path
           d="m 447.005,183.718 c 0.188,1.681 0.299,2.856 0.372,3.863 0.057,0.791 0.23,3.135 0.383,5.191 0.154,2.056 0.329,5.44 0.385,7.498 0.251,8.648 0.52,14.683 0.789,17.489 0.383,4.112 0.805,8.225 1.038,10.282 0.19,1.615 0.634,6.285 0.866,9.13 0.056,0.692 0.151,2.327 0.211,3.651 0.096,2.366 0.247,3.27 1.421,8.843 0.674,3.214 1.218,5.882 1.668,8.203 l -48.784,-67.387 z"
           style="fill:#8fa2ed;fill-opacity:1;fill-rule:nonzero;stroke:none"
           id="path3442" /><path
           d="m 419.028,97.63 h 19.795 l -0.077,0.441 c -0.058,0.232 -0.152,1.596 -0.213,3.019 -0.19,4.382 -1.267,12.281 -2.708,19.97 -0.903,4.766 -0.942,4.997 -1.325,7.228 l -0.347,1.922 1.345,2.593 c 0.827,1.576 1.632,3.501 2.058,4.901 0.401,1.269 1.074,3.442 1.499,4.806 0.422,1.384 0.902,2.844 1.054,3.266 0.27,0.732 0.828,2.712 1.905,6.826 0.75,2.843 1.516,6.189 2.076,9.033 0.288,1.422 0.595,2.979 0.692,3.459 0.229,1.056 0.673,4.574 0.96,7.401 0.231,2.402 0.423,4.094 0.847,7.688 0.17,1.396 0.307,2.551 0.416,3.535 l -41.651,6.763 z"
           style="fill:#6f7cdd;fill-opacity:1;fill-rule:nonzero;stroke:none"
           id="path3444" /><path
           d="m 342.548,583.682 c 0,-0.136 0.076,-0.423 0.173,-0.634 0.134,-0.326 0.172,-0.289 0.172,0.248 0.018,0.329 -0.058,0.616 -0.172,0.616 -0.097,0 -0.193,-0.115 -0.173,-0.23"
           style="fill:#e61e00;fill-opacity:1;fill-rule:nonzero;stroke:none"
           id="path3446" /><path
           d="m 356.099,577.627 c 0.055,0.172 0.018,0.326 -0.097,0.326 -0.115,0 -0.212,-0.307 -0.212,-0.692 0,-0.845 -0.249,-1.364 -1.001,-2.037 -0.126,-0.114 -0.24,-0.21 -0.348,-0.287 l 1.58,0.525 c -0.279,0.374 -0.235,1.056 0.078,2.165"
           style="fill:#e61e00;fill-opacity:1;fill-rule:nonzero;stroke:none"
           id="path3448" /><path
           d="m 353.78,574.718 c -0.287,0.067 -0.516,0.412 -0.777,1.063 -0.25,0.616 -0.27,0.883 -0.095,1.194 0.171,0.325 0.152,0.402 -0.097,0.402 -0.154,0 -0.289,-0.096 -0.289,-0.192 0,-0.115 -0.382,-0.289 -0.864,-0.421 -0.48,-0.135 -0.866,-0.29 -0.866,-0.367 0,-0.076 -0.308,-0.326 -0.673,-0.557 -1.173,-0.711 -2.786,-0.194 -2.786,0.884 0,0.286 -0.077,0.442 -0.212,0.365 -0.347,-0.23 -1.096,0.077 -1.23,0.499 -0.096,0.269 0,0.597 0.269,0.962 l 0.403,0.538 -0.672,-0.383 c -1.076,-0.636 -1.5,-0.406 -2.077,1.114 -0.268,0.728 -0.499,1.173 -0.499,0.999 -0.018,-0.172 0.117,-0.654 0.289,-1.038 0.539,-1.307 -0.346,-2.173 -1.652,-1.633 -0.309,0.133 -1.328,0.248 -2.25,0.287 -0.94,0.02 -1.999,0.116 -2.403,0.232 -0.673,0.19 -0.693,0.19 -0.808,-0.347 -0.113,-0.617 -0.824,-0.923 -1.479,-0.617 -0.248,0.097 -1.231,0.079 -2.536,-0.075 -2.692,-0.308 -3.346,-0.461 -5.116,-1.193 -0.766,-0.327 -1.594,-0.594 -1.841,-0.594 -0.54,0 -1.27,-0.309 -4.789,-2.02 -1.882,-0.903 -3.036,-1.345 -3.842,-1.459 -0.214,-0.031 -0.432,-0.068 -0.652,-0.111 l 24.317,-1.927 z"
           style="fill:#e61e00;fill-opacity:1;fill-rule:nonzero;stroke:none"
           id="path3450" /><path
           d="m 342.277,586.948 c 0.002,0.01 0.003,0.022 0.004,0.033 l -0.065,-0.007 c 0.013,-0.217 0.038,-0.241 0.061,-0.026"
           style="fill:#e61e00;fill-opacity:1;fill-rule:nonzero;stroke:none"
           id="path3452" /><path
           d="m 361.479,577.532 c -0.041,0.038 -0.08,-0.08 -0.1,-0.29 l 0.151,0.051 c -0.013,0.124 -0.03,0.212 -0.051,0.239"
           style="fill:#e61e00;fill-opacity:1;fill-rule:nonzero;stroke:none"
           id="path3454" /><path
           d="m 356.002,579.568 c 0,-0.211 0.057,-0.27 0.115,-0.115 0.056,0.135 0.037,0.306 -0.018,0.366 -0.061,0.075 -0.117,-0.039 -0.097,-0.251"
           style="fill:#e61e00;fill-opacity:1;fill-rule:nonzero;stroke:none"
           id="path3456" /><path
           d="m 347.621,579.511 c 0.326,-0.097 0.75,-0.23 0.961,-0.309 0.288,-0.114 0.327,-0.095 0.172,0.079 -0.114,0.114 -0.536,0.267 -0.959,0.307 -0.674,0.076 -0.692,0.076 -0.174,-0.077"
           style="fill:#e61e00;fill-opacity:1;fill-rule:nonzero;stroke:none"
           id="path3458" /><path
           d="m 405.354,190.481 48.784,67.387 c 1.068,5.515 1.597,9.07 2.039,13.314 l -59.02,-40.232 z"
           style="fill:#bbb8e3;fill-opacity:1;fill-rule:nonzero;stroke:none"
           id="path3460" /><path
           d="m 455.695,314.197 c -0.122,1.322 -0.246,2.693 -0.341,3.798 -0.559,5.863 -1.019,8.438 -2.133,11.819 -0.751,2.25 -1.002,2.844 -2,4.71 -0.053,0.099 -0.108,0.2 -0.162,0.305 l -6.004,1.903 z"
           style="fill:#d5c0d7;fill-opacity:1;fill-rule:nonzero;stroke:none"
           id="path3462" /><path
           d="m 447.863,340.992 c -1.172,2.293 -2.168,4.276 -2.332,4.681 -0.191,0.423 -0.596,1.672 -0.942,2.785 -0.042,0.142 -0.083,0.279 -0.125,0.417 l 0.591,-12.143 z"
           style="fill:#f2b39e;fill-opacity:1;fill-rule:nonzero;stroke:none"
           id="path3464" /><path
           d="m 426.63,465.333 c 0.17,0.286 0.503,0.564 0.738,0.564 0.153,0 0.346,0.115 0.46,0.25 0.172,0.192 0.116,0.347 -0.174,0.596 -0.326,0.269 -0.383,0.48 -0.286,1.038 0.056,0.384 0.114,0.941 0.114,1.231 0,0.267 0.135,0.633 0.288,0.787 0.213,0.211 0.23,0.422 0.116,0.847 -0.729,2.285 -0.808,2.67 -0.615,3.17 0.172,0.443 0.135,0.538 -0.174,0.634 -0.478,0.155 -0.671,0.885 -0.383,1.424 0.137,0.267 0.137,0.401 0,0.401 -0.095,0 -0.521,0.29 -0.903,0.656 -0.405,0.344 -0.922,0.692 -1.153,0.768 -0.25,0.076 -0.441,0.211 -0.441,0.306 0,0.097 -0.155,0.212 -0.366,0.29 -0.328,0.096 -0.983,1.422 -0.983,1.96 0,0.444 0.617,0.866 1.099,0.731 l 0.46,-0.115 -0.424,0.422 c -0.287,0.289 -0.363,0.52 -0.269,0.806 0.078,0.232 0.212,0.903 0.309,1.481 l 0.384,1.921 c 0.517,2.347 0.517,2.366 0.268,2.636 -0.211,0.211 -0.248,0.94 -0.152,3.573 0.115,3.767 -0.02,4.594 -1.807,11.186 -0.058,0.211 -0.269,0.521 -0.461,0.673 -0.29,0.251 -2.672,4.749 -2.672,5.076 0,0.075 -0.192,0.383 -0.406,0.692 -0.23,0.307 -0.362,0.692 -0.306,0.843 0.076,0.195 -0.02,0.386 -0.251,0.502 -0.46,0.249 -1.921,2.824 -1.921,3.42 0,0.231 -0.095,0.422 -0.192,0.422 -0.25,0 -0.962,1.615 -0.962,2.192 0,0.231 -0.095,0.521 -0.211,0.635 -0.23,0.232 -0.537,1.461 -0.653,2.519 -0.076,0.788 -0.29,1.055 -0.29,0.362 0,-0.536 -0.441,-1.093 -0.863,-1.093 -0.289,0 -1.058,0.731 -1.058,0.982 0,0.325 -0.863,0.939 -1.288,0.939 -0.383,0 -0.748,0.29 -2.786,2.172 -0.27,0.27 -0.365,0.539 -0.307,1.018 0.077,0.578 0.037,0.636 -0.345,0.541 -0.577,-0.155 -1.097,0.422 -0.983,1.075 0.097,0.441 0.039,0.52 -0.497,0.692 -0.367,0.095 -0.713,0.385 -0.906,0.748 -0.152,0.309 -0.402,0.675 -0.518,0.827 -0.306,0.309 -0.306,0.521 -0.059,1.018 0.155,0.27 0.136,0.366 -0.057,0.366 -0.229,0 -1.479,0.942 -1.901,1.443 -0.098,0.116 -0.346,0.402 -0.576,0.672 -0.212,0.268 -0.693,1.115 -1.059,1.883 -0.346,0.752 -0.731,1.384 -0.827,1.384 -0.287,0 -0.422,0.731 -0.192,1.134 0.171,0.326 0.116,0.442 -0.365,0.692 -0.634,0.326 -0.864,0.807 -0.692,1.5 0.076,0.306 0,0.672 -0.191,0.979 -0.385,0.576 -0.251,1.193 0.307,1.365 0.19,0.077 0.364,0.249 0.364,0.405 0,0.25 -0.039,0.25 -0.306,0 -0.155,-0.175 -0.423,-0.307 -0.557,-0.307 -0.366,0 -1.231,0.94 -1.366,1.497 -0.076,0.231 -0.193,0.424 -0.269,0.424 -0.079,0 -0.251,0.231 -0.345,0.538 -0.117,0.29 -0.327,0.692 -0.5,0.903 -0.172,0.211 -0.539,0.732 -0.808,1.154 -1.115,1.71 -2.113,3.114 -2.614,3.711 -0.307,0.343 -0.537,0.748 -0.537,0.882 0,0.153 -0.117,0.307 -0.27,0.367 -0.153,0.056 -0.481,0.461 -0.729,0.883 -0.25,0.422 -0.636,0.864 -0.887,0.959 -0.613,0.29 -0.922,1.058 -0.653,1.635 0.174,0.405 0.156,0.441 -0.155,0.366 -0.358,-0.103 -0.718,0.048 -1.084,0.444 L 345.42,491.691 Z"
           style="fill:#fb3207;fill-opacity:1;fill-rule:nonzero;stroke:none"
           id="path3466" /><path
           d="m 426.349,502.494 c 0,-0.211 0.056,-0.269 0.116,-0.116 0.056,0.137 0.039,0.307 -0.021,0.367 -0.055,0.076 -0.114,-0.04 -0.095,-0.251"
           style="fill:#fb3207;fill-opacity:1;fill-rule:nonzero;stroke:none"
           id="path3468" /><path
           d="m 429.154,488.002 c 0.116,0 0.29,0.095 0.346,0.192 0.155,0.23 0.079,0.23 -0.287,0 -0.175,-0.116 -0.193,-0.192 -0.059,-0.192"
           style="fill:#fb3207;fill-opacity:1;fill-rule:nonzero;stroke:none"
           id="path3470" /><path
           d="m 366.166,310.863 91.108,-25.554 v 4.72 c 0,16.144 0,16.318 -0.382,16.434 -0.481,0.151 -0.5,0.25 -0.867,4.228 -0.087,0.905 -0.207,2.181 -0.33,3.506 l -10.64,22.535 z"
           style="fill:#e8c5c4;fill-opacity:1;fill-rule:nonzero;stroke:none"
           id="path3472" /><path
           d="m 397.157,230.95 59.02,40.232 c 0.012,0.131 0.026,0.261 0.041,0.394 0.174,1.654 0.249,1.885 0.691,2.02 0.326,0.103 0.362,0.373 0.365,11.713 l -91.108,25.554 z"
           style="fill:#ddc2db;fill-opacity:1;fill-rule:nonzero;stroke:none"
           id="path3474" /><path
           d="m 345.42,491.691 43.112,62.739 c -0.18,0.196 -0.362,0.448 -0.547,0.766 -0.424,0.731 -0.48,0.962 -0.327,1.347 0.172,0.346 0.154,0.422 -0.058,0.346 -0.732,-0.29 -1.867,0.959 -1.577,1.728 0.058,0.134 -0.19,0.596 -0.556,0.982 -0.404,0.46 -0.653,0.613 -0.653,0.422 0,-0.403 -0.52,-0.903 -0.961,-0.903 -0.212,0 -0.637,0.289 -0.944,0.632 -0.305,0.33 -0.883,0.963 -1.267,1.384 -0.713,0.791 -1,1.463 -0.789,1.809 0.076,0.116 -0.115,0.327 -0.421,0.478 -0.308,0.156 -0.618,0.425 -0.673,0.578 -0.059,0.154 -0.521,0.521 -1.038,0.807 -0.501,0.31 -1.559,1.114 -2.327,1.826 -0.769,0.711 -1.632,1.328 -1.922,1.385 -0.345,0.078 -0.653,0.345 -0.865,0.77 -0.229,0.421 -0.654,0.806 -1.152,1.015 -0.425,0.195 -1.135,0.617 -1.559,0.924 -1.48,1.078 -6.63,3.479 -7.86,3.651 -1.249,0.195 -1.461,0.462 -1.461,1.866 0,0.419 -0.016,0.808 -0.045,1.05 l -0.151,-0.051 c -0.009,-0.093 -0.014,-0.202 -0.014,-0.327 0,-0.864 -0.443,-1.767 -0.943,-1.941 -0.192,-0.057 -0.692,-0.037 -1.114,0.058 -0.405,0.097 -1.23,0.136 -1.807,0.076 -0.762,-0.062 -1.238,0.035 -1.48,0.354 l -1.58,-0.525 c -0.261,-0.188 -0.473,-0.264 -0.661,-0.219 l -13.227,-4.395 z"
           style="fill:#f52700;fill-opacity:1;fill-rule:nonzero;stroke:none"
           id="path3476" /><path
           d="M 343.883,110.313 379.349,97.63 h 39.679 l -13.674,92.851 z"
           style="fill:#9887c4;fill-opacity:1;fill-rule:nonzero;stroke:none"
           id="path3478" /><path
           d="m 366.166,310.863 57.399,75.948 c -0.644,0.662 -2.064,2.098 -3.521,3.588 -2.614,2.633 -3.325,3.479 -3.325,3.883 0,0.421 -0.076,0.5 -0.557,0.5 -0.441,0 -0.827,0.287 -1.846,1.325 -0.712,0.748 -1.44,1.595 -1.632,1.885 -0.174,0.287 -0.462,0.653 -0.636,0.807 -0.345,0.268 -3.902,5.573 -4.113,6.111 -0.077,0.172 -0.402,0.751 -0.768,1.289 -0.731,1.114 -0.788,1.71 -0.271,2.172 0.291,0.25 0.347,0.403 0.192,0.672 -0.192,0.366 0.079,2.209 0.425,2.884 0.115,0.21 0.076,0.346 -0.078,0.402 -0.153,0.059 -0.498,0.867 -0.805,1.786 -0.288,0.938 -0.785,2.217 -1.092,2.833 l -66.777,11.991 z"
           style="fill:#ffae57;fill-opacity:1;fill-rule:nonzero;stroke:none"
           id="path3480" /><path
           d="m 445.055,336.732 -0.591,12.143 c -2.068,6.946 -4.061,12.282 -5.815,15.654 -1.038,1.978 -4.342,7.168 -5.342,8.399 -0.25,0.306 -0.442,0.75 -0.442,0.998 0,0.27 -0.135,0.5 -0.346,0.557 -0.442,0.154 -2.132,2.442 -3.134,4.248 -0.403,0.75 -1.786,2.865 -2.574,3.941 -1.309,1.787 -1.846,2.73 -1.75,2.981 0.076,0.191 -0.02,0.286 -0.268,0.286 -0.214,0 -0.615,0.25 -0.905,0.538 -0.057,0.06 -0.167,0.174 -0.323,0.334 l -57.399,-75.948 z"
           style="fill:#f9c093;fill-opacity:1;fill-rule:nonzero;stroke:none"
           id="path3482" /><path
           d="m 405.538,416.948 c -0.002,0.004 -0.004,0.01 -0.006,0.012 -0.346,0.655 -0.537,1.328 -0.481,1.595 0.04,0.251 -0.056,0.617 -0.267,0.847 -0.193,0.212 -0.405,0.672 -0.481,0.999 -0.076,0.346 -0.25,0.692 -0.406,0.808 -0.326,0.25 -1.4,4.171 -1.381,5.095 0,0.365 -0.135,1.4 -0.309,2.303 -0.441,2.367 -0.382,2.501 1.288,2.768 0.518,0.1 0.769,0.04 1.038,-0.209 0.172,-0.192 0.518,-0.308 0.749,-0.288 0.557,0.077 1.058,-0.425 1.058,-1.038 0,-0.404 0.059,-0.441 0.346,-0.29 0.171,0.098 0.538,0.195 0.807,0.195 0.271,0.016 1.078,0.037 1.826,0.075 1.154,0.039 1.405,0.116 1.865,0.577 0.844,0.807 1.632,0.692 2.288,-0.366 0.442,-0.732 0.709,-0.827 0.864,-0.306 0.405,1.288 0.748,1.806 1.248,1.901 0.482,0.097 0.502,0.135 0.271,0.386 -0.541,0.517 -0.327,0.979 0.632,1.479 0.367,0.192 0.808,0.271 1.038,0.211 0.211,-0.075 0.673,-0.135 1.038,-0.135 0.694,0 1.231,-0.364 1.231,-0.845 0,-0.153 0.174,-0.269 0.365,-0.269 0.211,0 0.501,-0.135 0.654,-0.288 0.25,-0.248 0.309,-0.212 0.404,0.193 0.077,0.287 0.306,0.517 0.577,0.594 0.326,0.079 0.422,0.214 0.366,0.462 -0.116,0.423 0.633,1.136 1.345,1.288 0.383,0.075 0.633,0.326 0.942,0.999 0.231,0.481 0.403,1.02 0.383,1.173 -0.076,0.615 0.174,1.173 0.616,1.384 0.326,0.135 0.538,0.462 0.673,1.038 0.153,0.557 0.346,0.864 0.632,0.962 0.731,0.231 0.887,0.498 0.52,0.864 -0.193,0.191 -0.365,0.768 -0.42,1.539 -0.137,1.555 -0.04,6.09 0.131,6.265 0.079,0.076 0.539,0.192 1.018,0.248 0.502,0.058 0.924,0.193 0.963,0.309 0.075,0.211 -1,0.729 -1.902,0.924 -1.002,0.23 -0.962,1.67 0.056,2.016 0.307,0.116 0.866,0.501 1.23,0.884 0.366,0.365 0.828,0.673 1.002,0.673 0.306,0.019 0.306,0.038 -0.039,0.23 -0.212,0.116 -0.444,0.31 -0.518,0.405 -0.079,0.135 -0.426,0.076 -0.982,-0.135 -0.713,-0.27 -0.943,-0.288 -1.366,-0.095 -0.711,0.325 -0.806,0.959 -0.325,2.211 0.307,0.805 0.346,1.154 0.191,1.44 -0.366,0.693 0.52,2.423 1.383,2.709 0.175,0.06 0.117,0.212 -0.172,0.502 -0.002,0.003 -0.005,0.006 -0.008,0.01 l -88.752,-32.318 z"
           style="fill:#fd823f;fill-opacity:1;fill-rule:nonzero;stroke:none"
           id="path3484" /><path
           d="m 338.761,428.939 88.752,32.318 c -0.472,0.474 -0.509,0.781 -0.145,1.278 0.286,0.402 0.056,1.286 -0.501,1.862 -0.191,0.194 -0.346,0.462 -0.346,0.616 0,0.097 0.043,0.209 0.109,0.32 l -81.21,26.358 z"
           style="fill:#ff6813;fill-opacity:1;fill-rule:nonzero;stroke:none"
           id="path3486" /><path
           d="m 431.48,463.109 c 0.386,0.269 0.577,0.481 0.423,0.481 -0.153,0 -0.538,-0.212 -0.864,-0.481 -0.752,-0.613 -0.462,-0.613 0.441,0"
           style="fill:#ff6813;fill-opacity:1;fill-rule:nonzero;stroke:none"
           id="path3488" /><path
           d="m 397.157,230.95 -30.991,79.913 -7.939,-74.277 z"
           style="fill:#dfc0bd;fill-opacity:1;fill-rule:nonzero;stroke:none"
           id="path3490" /><path
           d="m 344.651,181.005 -0.768,-70.692 61.471,80.168 z"
           style="fill:#ad9cb9;fill-opacity:1;fill-rule:nonzero;stroke:none"
           id="path3492" /><path
           d="m 405.354,190.481 -8.197,40.469 -38.93,5.636 z"
           style="fill:#c0b7c6;fill-opacity:1;fill-rule:nonzero;stroke:none"
           id="path3494" /><path
           d="m 344.651,181.005 60.703,9.476 -47.127,46.105 z"
           style="fill:#beafba;fill-opacity:1;fill-rule:nonzero;stroke:none"
           id="path3496" /><path
           d="m 366.166,310.863 -27.405,118.076 -17.296,-27.404 c 0.105,-0.559 0.211,-1.109 0.304,-1.545 0.444,-2.229 0.576,-1.942 -2.555,-5.864 -1.288,-1.614 -2.693,-3.401 -3.115,-3.959 -0.421,-0.536 -1.325,-1.69 -2.017,-2.537 -2.347,-2.901 -3.671,-4.671 -4.901,-6.535 -0.79,-1.191 -1.595,-2.153 -2.25,-2.671 -0.036,-0.028 -0.071,-0.054 -0.105,-0.082 l -27.232,-43.147 z"
           style="fill:#ffaa4d;fill-opacity:1;fill-rule:nonzero;stroke:none"
           id="path3498" /><path
           d="m 279.594,335.195 -24.588,-95.024 103.221,-3.585 z"
           style="fill:#f0ad96;fill-opacity:1;fill-rule:nonzero;stroke:none"
           id="path3500" /><path
           d="m 366.166,310.863 -86.572,24.332 78.633,-98.609 z"
           style="fill:#f6bb98;fill-opacity:1;fill-rule:nonzero;stroke:none"
           id="path3502" /><path
           d="m 340.553,570.323 -73.253,-88.109 78.12,9.477 z"
           style="fill:#fb3500;fill-opacity:1;fill-rule:nonzero;stroke:none"
           id="path3504" /><path
           d="m 358.227,236.586 -103.221,3.585 89.645,-59.166 z"
           style="fill:#d3aca7;fill-opacity:1;fill-rule:nonzero;stroke:none"
           id="path3506" /><path
           d="m 309.854,410.908 c 0.25,0.479 0.151,0.518 -0.195,0.113 -0.133,-0.171 -0.192,-0.344 -0.133,-0.403 0.057,-0.058 0.193,0.077 0.328,0.29"
           style="fill:#fe871a;fill-opacity:1;fill-rule:nonzero;stroke:none"
           id="path3508" /><path
           d="m 291.191,416.848 c 0.571,-0.205 0.915,-0.742 0.69,-1.117 -0.056,-0.095 -0.056,-0.478 0,-0.845 0.096,-0.5 0.211,-0.636 0.481,-0.557 0.192,0.057 0.499,0 0.692,-0.098 0.232,-0.132 0.481,-0.116 0.768,0 0.27,0.135 0.537,0.135 0.748,0.019 0.194,-0.114 0.792,-0.114 1.5,-0.019 1.5,0.214 2.02,0.079 2.172,-0.518 0.06,-0.25 0.269,-0.517 0.462,-0.576 0.211,-0.06 0.424,-0.29 0.481,-0.501 0.076,-0.191 0.271,-0.363 0.461,-0.363 0.174,0 0.501,-0.115 0.692,-0.271 0.251,-0.19 0.537,-0.211 0.943,-0.095 0.959,0.287 1.44,0.192 1.881,-0.306 0.502,-0.58 0.924,-0.616 0.924,-0.119 0,0.52 0.501,0.982 1.059,0.982 0.286,0 0.806,0.346 1.419,0.962 0.54,0.538 1.058,0.96 1.173,0.96 0.232,0 0.904,-0.326 1.23,-0.616 0.116,-0.076 0.406,-0.326 0.655,-0.519 0.251,-0.21 0.518,-0.615 0.597,-0.902 0.133,-0.518 0.151,-0.5 0.652,0.557 0.597,1.288 1.075,1.615 1.883,1.288 0.29,-0.134 0.596,-0.404 0.655,-0.596 0.152,-0.461 0.498,-0.461 1.286,0.02 0.772,0.461 1.249,0.481 2.268,0.076 0.521,-0.211 0.808,-0.462 0.886,-0.768 0.056,-0.251 0.192,-0.406 0.288,-0.346 0.325,0.191 0.942,-0.135 1.212,-0.673 0.326,-0.596 0.613,-2 1.748,-8.381 0.096,-0.53 0.231,-1.269 0.368,-1.991 l 17.296,27.404 z"
           style="fill:#fe871a;fill-opacity:1;fill-rule:nonzero;stroke:none"
           id="path3510" /><path
           d="m 306.826,378.342 c -1.017,-0.8 -1.448,-1.356 -1.892,-2.397 -0.156,-0.365 -0.523,-0.922 -0.809,-1.25 -0.636,-0.674 -1.479,-1.923 -2.247,-3.267 -0.311,-0.518 -0.943,-1.442 -1.405,-2.018 -0.481,-0.576 -1.114,-1.614 -1.423,-2.306 -0.748,-1.635 -1.075,-2.345 -1.286,-2.692 -0.098,-0.153 -0.27,-0.498 -0.385,-0.768 -0.308,-0.673 -1.134,-1.788 -1.481,-1.98 -0.75,-0.423 -1.615,0.808 -1.615,2.269 0,1.133 -0.305,1.595 -1.403,2.133 l -1.038,0.52 -0.923,-0.461 c -0.94,-0.481 -1.249,-0.943 -1.249,-1.925 0,-0.574 -3.191,-6.994 -5.574,-11.223 -2.98,-5.248 -4.745,-8.477 -6.189,-11.245 -0.44,-0.847 -0.86,-1.652 -1.261,-2.417 l 2.948,-4.12 z"
           style="fill:#fe871a;fill-opacity:1;fill-rule:nonzero;stroke:none"
           id="path3512" /><path
           d="m 340.553,570.323 -24.317,1.927 c -1.474,-0.282 -3.032,-0.814 -3.503,-1.215 -0.246,-0.211 -0.536,-0.385 -0.67,-0.385 -0.479,0 -2.383,-1.442 -2.615,-1.961 -0.251,-0.594 -0.827,-1 -1.23,-0.865 -0.229,0.097 -0.5,-0.058 -1.596,-0.981 -0.288,-0.231 -0.652,-0.461 -0.826,-0.517 -0.171,-0.057 -0.365,-0.367 -0.421,-0.653 -0.077,-0.327 -0.29,-0.617 -0.482,-0.673 -0.211,-0.079 -0.577,-0.29 -0.807,-0.501 -0.558,-0.481 -1.059,-0.481 -1.5,-0.038 -0.421,0.423 -0.808,0.345 -0.673,-0.153 0.29,-1.133 -1.305,-3.075 -2.323,-2.808 -0.501,0.116 -0.905,-0.326 -1.137,-1.269 -0.077,-0.286 -0.307,-0.556 -0.497,-0.632 -0.212,-0.059 -0.521,-0.346 -0.694,-0.617 -0.345,-0.517 -1.173,-1.345 -2.132,-2.151 -1.423,-1.154 -2,-1.768 -2,-2.078 0,-0.497 -0.191,-0.692 -1.191,-1.268 -0.501,-0.288 -1.02,-0.729 -1.135,-0.959 -0.191,-0.346 -1.612,-1.922 -2.268,-2.499 -1.229,-1.077 -2.057,-2.036 -2.363,-2.749 -0.136,-0.29 -0.501,-0.539 -0.963,-0.692 -0.576,-0.174 -0.729,-0.309 -0.729,-0.671 0,-0.597 -0.421,-1.386 -1.038,-1.962 -0.27,-0.27 -0.5,-0.636 -0.5,-0.827 0,-0.211 -0.211,-0.557 -0.462,-0.788 -0.248,-0.231 -0.497,-0.616 -0.576,-0.847 -0.076,-0.25 -0.346,-0.498 -0.614,-0.557 -0.289,-0.076 -0.461,-0.25 -0.461,-0.478 0,-0.636 -0.636,-1.714 -1.078,-1.826 -0.306,-0.079 -0.557,-0.445 -0.863,-1.174 -0.232,-0.576 -0.617,-1.288 -0.847,-1.575 -0.211,-0.27 -0.769,-1.098 -1.21,-1.846 -0.441,-0.731 -1.019,-1.575 -1.289,-1.865 -0.27,-0.29 -0.48,-0.615 -0.48,-0.731 0,-0.116 -0.212,-0.422 -0.462,-0.673 -0.402,-0.402 -0.442,-0.537 -0.268,-0.999 0.153,-0.46 0.077,-0.768 -0.5,-2.037 -0.557,-1.209 -0.808,-1.558 -1.269,-1.73 -0.557,-0.211 -0.673,-0.48 -0.613,-1.325 0.036,-0.5 -0.713,-1.885 -1.443,-2.653 -0.347,-0.366 -0.789,-0.826 -0.96,-0.998 -0.194,-0.214 -0.231,-0.347 -0.098,-0.347 0.328,0 0.481,-0.865 0.25,-1.327 -0.135,-0.232 -0.306,-0.903 -0.422,-1.5 -0.27,-1.575 -1.654,-6.151 -2.116,-7.015 -0.171,-0.346 -0.287,-0.767 -0.808,-3.268 -0.132,-0.71 -0.343,-1.401 -0.458,-1.536 -0.175,-0.209 -0.635,-1.017 -1.088,-1.862 l 0.245,-2.161 c 0.03,-0.028 0.06,-0.056 0.092,-0.09 0.342,-0.342 0.396,-1.344 0.136,-1.918 l 2.019,-17.786 z"
           style="fill:#f32900;fill-opacity:1;fill-rule:nonzero;stroke:none"
           id="path3514" /><path
           d="m 256.542,122.606 87.341,-12.293 0.768,70.692 z"
           style="fill:#b786a7;fill-opacity:1;fill-rule:nonzero;stroke:none"
           id="path3516" /><path
           d="m 235.795,185.103 20.747,-62.497 88.109,58.399 z"
           style="fill:#c28794;fill-opacity:1;fill-rule:nonzero;stroke:none"
           id="path3518" /><path
           d="m 255.006,240.171 -19.211,-55.068 108.856,-4.098 z"
           style="fill:#d39693;fill-opacity:1;fill-rule:nonzero;stroke:none"
           id="path3520" /><path
           d="m 267.3,482.214 71.461,-53.275 6.659,62.752 z"
           style="fill:#ff5200;fill-opacity:1;fill-rule:nonzero;stroke:none"
           id="path3522" /><path
           d="m 255.689,455.133 c 0.135,-0.212 0.365,-0.423 0.537,-0.479 0.155,-0.078 0.076,0.096 -0.172,0.364 -0.264,0.284 -0.431,0.438 -0.501,0.468 l -0.026,-0.057 c 0.022,-0.06 0.074,-0.155 0.162,-0.296"
           style="fill:#fe6100;fill-opacity:1;fill-rule:nonzero;stroke:none"
           id="path3524" /><path
           d="m 269.469,449.925 c -0.576,-0.096 -1.305,-0.21 -1.631,-0.27 -0.445,-0.095 -0.887,0.02 -1.751,0.462 -1.5,0.75 -1.788,1.057 -1.788,1.864 v 0.653 l -0.383,-0.383 c -0.462,-0.46 -1.212,-0.5 -1.616,-0.098 -0.154,0.156 -0.365,0.29 -0.481,0.29 -0.422,0 -0.979,0.788 -0.979,1.345 0,0.616 0.481,1.73 0.845,1.961 0.539,0.366 1.249,0.136 2,-0.616 1.114,-1.153 3.131,-2.113 5.939,-2.864 1.997,-0.538 1.883,-2.057 -0.155,-2.344 m -2.169,32.289 -2.036,-4.631 c 0.302,-0.348 0.773,-0.806 1.515,-1.499 0.442,-0.422 0.597,-0.712 0.597,-1.23 0,-0.866 -0.52,-1.941 -1.038,-2.19 -0.385,-0.192 -0.385,-0.211 0.077,-0.211 0.383,-0.02 0.536,0.134 0.825,0.843 0.424,1.019 0.828,1.193 1.731,0.752 0.613,-0.29 0.729,-0.482 1.19,-1.941 0.271,-0.884 0.443,-1.674 0.405,-1.77 -0.174,-0.248 0.479,-1.962 0.883,-2.363 0.212,-0.212 0.346,-0.538 0.288,-0.751 -0.057,-0.211 0.098,-0.558 0.367,-0.845 0.671,-0.731 0.921,-1.885 0.576,-2.577 -0.156,-0.287 -0.251,-0.594 -0.193,-0.653 0.269,-0.269 -0.193,-0.903 -0.807,-1.095 -0.366,-0.115 -0.616,-0.308 -0.537,-0.405 0.383,-0.633 -0.711,-1.325 -2.097,-1.325 -0.288,0 -0.75,-0.135 -0.997,-0.306 -0.462,-0.289 -0.733,-0.289 -1.463,0 -0.232,0.096 -0.346,0 -0.422,-0.442 -0.192,-0.906 -1.519,-1.482 -2.097,-0.922 -0.132,0.151 -0.478,0.326 -0.767,0.383 -0.287,0.077 -0.577,0.309 -0.634,0.52 -0.059,0.21 -0.29,0.383 -0.5,0.383 -0.423,0 -1.134,0.655 -1.134,1.038 0,0.154 0.135,0.404 0.289,0.576 0.153,0.155 0.287,0.385 0.287,0.5 0,0.136 0.404,0.654 0.923,1.154 1.768,1.787 1.882,1.922 1.48,1.922 -0.402,0 -2.788,-2.403 -3.48,-3.497 -0.267,-0.406 -0.537,-0.732 -0.634,-0.732 -0.095,0 -0.209,-0.326 -0.27,-0.712 -0.036,-0.402 -0.171,-0.978 -0.306,-1.305 -0.114,-0.309 -0.346,-1.077 -0.5,-1.674 -0.192,-0.692 -0.423,-1.134 -0.633,-1.189 -0.462,-0.156 -0.808,-1.329 -0.481,-1.635 0.309,-0.27 0.325,-0.866 0.058,-1.385 -0.174,-0.287 -0.077,-0.557 0.479,-1.345 0.559,-0.807 0.654,-1.113 0.559,-1.614 -0.098,-0.519 0.037,-0.809 0.788,-1.883 1.114,-1.597 2.247,-2.597 3.805,-3.365 0.671,-0.326 1.479,-0.865 1.809,-1.173 0.555,-0.537 0.959,-1.289 0.767,-1.479 -0.04,-0.04 0.306,-0.481 0.768,-0.962 0.442,-0.479 0.827,-0.961 0.827,-1.036 0,-0.099 0.578,-0.617 1.307,-1.193 1.461,-1.154 1.479,-1.173 2.21,-2.037 0.692,-0.847 0.692,-1.769 0.04,-2.442 -0.578,-0.557 -0.808,-0.597 -1.384,-0.191 -0.578,0.402 -0.694,0.095 -0.29,-0.713 0.29,-0.536 0.385,-0.615 0.576,-0.401 0.54,0.557 1.711,0 1.52,-0.732 -0.057,-0.23 0.075,-0.402 0.461,-0.557 0.711,-0.307 0.847,-0.769 0.422,-1.635 -0.462,-0.959 -1.537,-1.44 -2.845,-1.286 -0.672,0.057 -0.882,0.037 -0.787,-0.135 0.077,-0.114 0.326,-0.214 0.577,-0.214 0.691,0 4.093,-0.767 5.669,-1.286 0.807,-0.249 2.172,-0.52 3.059,-0.576 1.593,-0.116 2.15,-0.346 2.15,-0.943 0,-0.441 -0.767,-1.077 -1.172,-0.978 -0.191,0.056 -0.366,0.019 -0.366,-0.059 0,-0.268 -1.325,-0.614 -1.882,-0.498 -0.462,0.114 -0.481,0.095 -0.135,-0.099 0.576,-0.326 0.864,-0.767 0.864,-1.286 0,-0.25 0.058,-0.424 0.155,-0.384 2.076,0.903 2.729,0.903 3.133,-0.077 0.132,-0.346 0.442,-0.827 0.692,-1.058 0.248,-0.231 0.443,-0.557 0.443,-0.712 0,-0.171 0.132,-0.23 0.382,-0.171 0.461,0.114 2.498,-0.481 2.498,-0.731 0,-0.096 0.346,-0.172 0.752,-0.172 1.229,0 2.113,-0.442 2.132,-1.078 0,-0.116 -0.172,-0.402 -0.365,-0.633 -0.211,-0.251 -0.404,-0.521 -0.443,-0.597 -0.036,-0.095 -0.441,-0.346 -0.922,-0.557 -0.709,-0.309 -0.788,-0.384 -0.383,-0.384 0.267,-0.021 0.94,0.153 1.5,0.365 1.094,0.422 2.96,0.498 4.014,0.171 0.016,-0.005 0.029,-0.011 0.042,-0.016 l 47.57,12.091 z"
           style="fill:#fe6100;fill-opacity:1;fill-rule:nonzero;stroke:none"
           id="path3526" /><path
           d="m 263.724,501.937 c 0,-0.059 0.172,-0.019 0.363,0.095 0.473,0.246 0.675,0.25 0.966,-0.024 l -0.245,2.161 c -0.549,-1.021 -1.084,-2.096 -1.084,-2.232"
           style="fill:#f01c00;fill-opacity:1;fill-rule:nonzero;stroke:none"
           id="path3528" /><path
           d="m 264.548,484.637 c 0.103,-0.096 0.201,-0.311 0.28,-0.576 L 267.3,482.214 265.281,500 c -0.034,-0.073 -0.073,-0.141 -0.116,-0.198 -0.155,-0.192 -0.29,-0.596 -0.29,-0.884 0,-0.307 -0.518,-1.538 -1.133,-2.749 -1.019,-1.961 -1.115,-2.211 -0.789,-2.306 0.596,-0.193 0.596,-0.653 0.079,-2.192 -0.481,-1.382 -0.501,-1.632 -0.462,-4.44 0.012,-0.468 0.019,-0.982 0.023,-1.501 l 1.177,-0.879 c 0.264,0.125 0.522,0.058 0.778,-0.214"
           style="fill:#f01c00;fill-opacity:1;fill-rule:nonzero;stroke:none"
           id="path3530" /><path
           d="m 264.954,482.37 c -0.02,-0.056 -0.05,-0.104 -0.083,-0.15 l 2.429,-0.006 -2.472,1.847 c 0.172,-0.574 0.257,-1.375 0.126,-1.691"
           style="fill:#f61b00;fill-opacity:1;fill-rule:nonzero;stroke:none"
           id="path3532" /><path
           d="m 263.475,482.311 c -0.06,0.155 -0.156,0.655 -0.232,1.116 -0.096,0.674 -0.058,0.923 0.191,1.171 0.114,0.119 0.225,0.201 0.336,0.253 l -1.177,0.879 c 0.012,-1.292 0.009,-2.614 -0.005,-3.341 l -0.004,-0.164 0.934,-0.002 c -0.017,0.027 -0.032,0.057 -0.043,0.088"
           style="fill:#f61b00;fill-opacity:1;fill-rule:nonzero;stroke:none"
           id="path3534" /><path
           d="m 279.594,335.195 -5.093,0.028 c -1.651,-3.133 -2.746,-5.166 -3.282,-6.082 -1.269,-2.151 -3.766,-7.013 -5.19,-10.088 -1.692,-3.671 -3.672,-7.746 -8.264,-17.013 -2.211,-4.44 -4.324,-8.801 -4.709,-9.704 -1.27,-2.942 -2.71,-6.786 -3.326,-8.746 -0.768,-2.538 -2.805,-10.534 -3.21,-12.59 -0.171,-0.903 -0.518,-2.288 -0.768,-3.075 -0.25,-0.789 -0.672,-2.269 -0.942,-3.267 -0.27,-1.019 -0.808,-2.577 -1.191,-3.462 -0.386,-0.901 -0.866,-2.055 -1.077,-2.592 -0.093,-0.232 -0.203,-0.488 -0.307,-0.725 l 12.771,-17.708 z"
           style="fill:#fb864f;fill-opacity:1;fill-rule:nonzero;stroke:none"
           id="path3536" /><path
           d="m 276.646,339.315 c -0.796,-1.526 -1.511,-2.89 -2.145,-4.092 l 5.093,-0.028 z"
           style="fill:#ff7815;fill-opacity:1;fill-rule:nonzero;stroke:none"
           id="path3538" /><path
           d="m 264.871,482.22 c -0.3,-0.416 -1.098,-0.416 -1.353,0.003 l -0.934,0.002 -0.033,-1.721 h 0.481 c 0.594,0 1.075,-0.461 1.075,-1.075 0,-0.27 0.135,-0.52 0.29,-0.576 0.151,-0.059 0.327,-0.31 0.402,-0.52 0.063,-0.218 0.197,-0.44 0.465,-0.75 l 2.036,4.631 z"
           style="fill:#fd4400;fill-opacity:1;fill-rule:nonzero;stroke:none"
           id="path3540" /><path
           d="m 255.527,455.429 0.026,0.057 c -0.037,0.017 -0.046,-0.002 -0.026,-0.057"
           style="fill:#fd4400;fill-opacity:1;fill-rule:nonzero;stroke:none"
           id="path3542" /><path
           d="m 247.491,240.557 c -0.064,0.111 -0.104,0.233 -0.104,0.363 0,0.423 0.709,1.056 1.15,1.056 0.232,0 0.617,-0.211 0.866,-0.478 0.437,-0.423 0.551,-0.739 0.378,-1.059 l 5.225,-0.268 -12.771,17.708 c -0.131,-0.299 -0.253,-0.567 -0.328,-0.717 -0.423,-0.77 -2.153,-5.401 -2.461,-6.555 -0.286,-1.077 -0.806,-3.959 -1.017,-5.708 -0.135,-1.212 -0.501,-1.654 -1.21,-1.479 -0.27,0.056 -1.846,0.172 -3.5,0.249 l -3.016,0.133 -1.365,0.963 c -3.711,2.573 -4.459,3.074 -6.074,3.842 -2.518,1.232 -5.843,2.231 -11.341,3.366 -1.575,0.345 -3.229,0.691 -3.672,0.767 -0.422,0.096 -1.634,0.386 -2.689,0.635 -1.038,0.269 -2.633,0.578 -3.537,0.689 -0.903,0.136 -2.614,0.462 -3.826,0.772 l -2.192,0.538 -2.227,2.287 c -1.231,1.269 -2.594,2.693 -3.04,3.17 -0.441,0.502 -0.998,1.059 -1.249,1.25 -0.246,0.211 -0.672,0.673 -0.978,1.038 -1.325,1.691 -3.211,4.229 -3.864,5.19 -1.229,1.882 -1.326,1.999 -1.941,2.691 -0.346,0.364 -0.787,0.942 -0.999,1.249 -0.576,0.826 -4.537,4.689 -6.018,5.863 -1.094,0.883 -2.208,1.654 -5.286,3.632 -1.574,1.019 -3.249,2.312 -4.531,3.455 l -15.882,-39.65 z"
           style="fill:#f56659;fill-opacity:1;fill-rule:nonzero;stroke:none"
           id="path3544" /><path
           d="m 238.679,255.298 c -0.078,-0.06 -0.135,-0.211 -0.135,-0.327 0,-0.115 0.096,-0.096 0.231,0.037 0.116,0.115 0.171,0.269 0.135,0.327 -0.059,0.058 -0.175,0.039 -0.231,-0.037"
           style="fill:#f56659;fill-opacity:1;fill-rule:nonzero;stroke:none"
           id="path3546" /><path
           d="m 235.795,185.103 -26.629,-38.911 c 0.368,0.037 0.778,0.084 1.258,0.144 1.575,0.172 3.711,0.327 4.765,0.327 3.461,0 8.421,0.365 10.285,0.767 4.825,1.019 5.805,1.174 8.65,1.269 2.535,0.096 3.035,0.057 3.286,-0.191 0.211,-0.194 0.385,-1.25 0.633,-3.711 0.194,-1.902 0.501,-4.766 0.711,-6.381 0.443,-3.556 0.443,-3.938 0.077,-5.9 -1.075,-5.652 -1.421,-7.632 -1.536,-8.553 -0.134,-1.233 -0.418,-3.146 -0.782,-5.334 l 20.029,3.977 z"
           style="fill:#bc5370;fill-opacity:1;fill-rule:nonzero;stroke:none"
           id="path3548" /><path
           d="m 249.781,240.439 c -0.047,-0.088 -0.113,-0.178 -0.206,-0.269 -0.535,-0.536 -1.727,-0.232 -2.084,0.387 l -97.499,4.992 85.803,-60.446 19.211,55.068 z"
           style="fill:#e07168;fill-opacity:1;fill-rule:nonzero;stroke:none"
           id="path3550" /><path
           d="m 181.147,170.929 0.85,-1.01 0.115,-2.654 c 0.057,-1.46 0.116,-3.132 0.096,-3.708 -0.057,-1.922 1.173,-3.728 3.17,-4.67 0.54,-0.251 1.711,-0.712 2.615,-1.001 2.171,-0.71 2.576,-1.134 2.847,-2.941 0.114,-0.749 0.383,-1.69 0.613,-2.056 0.922,-1.5 3.345,-2.921 5.919,-3.478 1.249,-0.27 1.885,-0.54 3.154,-1.364 1.846,-1.193 2.844,-1.539 5.284,-1.827 1.179,-0.154 1.921,-0.171 3.356,-0.028 l 26.629,38.911 z"
           style="fill:#c24360;fill-opacity:1;fill-rule:nonzero;stroke:none"
           id="path3552" /><path
           d="m 149.992,245.549 1.69,-35.95 c 0.508,-0.322 1.041,-0.662 1.522,-0.971 3.902,-2.498 4.383,-2.785 8.572,-5.284 2.288,-1.384 5.151,-2.998 6.342,-3.595 1.77,-0.903 2.232,-1.229 2.403,-1.69 0.135,-0.307 0.616,-1.345 1.078,-2.288 1.038,-2.116 1.363,-3.056 2.326,-6.862 0.479,-1.886 1.114,-3.748 1.691,-4.997 0.768,-1.69 0.943,-2.307 1.173,-4.113 0.151,-1.153 0.402,-2.558 0.557,-3.095 0.346,-1.212 1.421,-2.923 3.247,-5.115 l 0.554,-0.66 54.648,14.174 z"
           style="fill:#d54e5b;fill-opacity:1;fill-rule:nonzero;stroke:none"
           id="path3554" /><path
           d="m 165.874,285.199 c -0.969,0.865 -1.715,1.645 -2.021,2.157 -0.462,0.769 -1.749,1.308 -4.44,1.826 -0.982,0.192 -0.711,1.193 0.845,2.979 0.5,0.597 1.442,1.711 2.076,2.48 0.636,0.771 1.499,1.809 1.922,2.306 0.424,0.501 1.673,2.021 2.787,3.365 1.115,1.365 2.308,2.786 2.654,3.19 0.363,0.404 0.883,1.039 1.153,1.405 0.287,0.363 1.249,1.556 2.133,2.613 l 1.595,1.959 -0.077,1.423 c -0.058,1.308 -0.115,1.461 -0.71,2.077 -0.867,0.882 -1.655,1.133 -3.04,0.959 -1.054,-0.132 -1.133,-0.172 -2.517,-1.651 -0.805,-0.829 -1.651,-1.77 -1.883,-2.116 -0.25,-0.327 -1.078,-1.286 -1.865,-2.152 -0.787,-0.845 -1.846,-2.039 -2.344,-2.615 -0.5,-0.576 -1.403,-1.614 -2,-2.306 -1.038,-1.17 -4.881,-5.63 -7.571,-8.803 -0.656,-0.769 -1.383,-1.441 -1.615,-1.497 -0.23,-0.059 -2.02,0.441 -4.422,1.246 -4.612,1.539 -6.764,2.02 -10.456,2.346 -4.092,0.346 -5.668,-0.059 -7.187,-1.826 -1.027,-1.202 -1.659,-2.411 -1.91,-3.68 l 23.011,-45.335 z"
           style="fill:#fc411c;fill-opacity:1;fill-rule:nonzero;stroke:none"
           id="path3556" /><path
           d="m 128.468,251.029 c -2.385,1.269 -2.366,1.77 0.152,2.884 0.884,0.384 1.692,0.712 1.769,0.733 0.077,0.015 0.483,-0.156 0.884,-0.368 0.402,-0.193 0.808,-0.519 0.864,-0.691 0.079,-0.193 -0.132,-0.923 -0.498,-1.749 -0.807,-1.865 -1.057,-1.942 -3.171,-0.809 m -1.487,39.855 c -0.241,-1.224 -0.129,-2.505 0.333,-3.894 0.268,-0.824 0.539,-1.804 0.615,-2.208 0.059,-0.385 0.365,-1.499 0.672,-2.441 0.615,-1.846 0.711,-2.749 0.346,-3.075 -0.133,-0.116 -0.709,-0.522 -1.286,-0.924 -1.635,-1.114 -3.289,-4.093 -3.289,-5.9 0,-1.307 0.732,-3.268 1.865,-4.979 0.557,-0.845 1.019,-1.672 1.019,-1.846 0,-0.327 -0.943,-1.69 -2.037,-2.976 -1.557,-1.81 -3.075,-3.577 -3.747,-4.364 -0.386,-0.462 -0.847,-1.096 -1.019,-1.444 -0.52,-1.038 -0.846,-0.999 -3.731,0.617 -4.054,2.267 -11.126,6.437 -13.147,7.744 -0.594,0.386 -1.978,1.271 -3.075,1.942 -0.454,0.288 -1.231,0.792 -2.163,1.401 l -0.056,-25.103 c 2.248,-1.418 4.726,-3.007 5.239,-3.38 0.325,-0.231 1.402,-0.942 2.401,-1.594 1.019,-0.654 2.076,-1.365 2.345,-1.576 0.289,-0.211 1.347,-0.904 2.365,-1.538 0.23,-0.147 0.494,-0.314 0.777,-0.492 l 38.584,10.695 z"
           style="fill:#f22f38;fill-opacity:1;fill-rule:nonzero;stroke:none"
           id="path3558" /><path
           d="m 111.408,234.854 c 0.947,-0.599 2.104,-1.327 2.875,-1.814 0.979,-0.636 2.363,-1.499 3.074,-1.925 0.845,-0.517 1.289,-0.919 1.366,-1.247 0.192,-0.73 0.25,-0.77 0.748,-0.538 0.385,0.174 0.596,0.115 1.383,-0.403 1.214,-0.788 3.749,-2.346 4.921,-3.038 0.501,-0.288 0.963,-0.73 1.019,-0.941 0.079,-0.269 0.232,-0.385 0.425,-0.348 0.172,0.06 0.864,-0.231 1.516,-0.632 0.674,-0.404 2.057,-1.249 3.076,-1.866 2.268,-1.365 3.96,-2.459 4.093,-2.634 0.06,-0.056 0.541,-0.346 1.058,-0.632 0.982,-0.52 3.653,-2.152 6.248,-3.845 0.789,-0.518 1.748,-1.136 2.114,-1.366 0.827,-0.538 2.94,-1.883 4.554,-2.9 0.397,-0.238 1.075,-0.663 1.804,-1.126 l -1.69,35.95 z"
           style="fill:#db3447;fill-opacity:1;fill-rule:nonzero;stroke:none"
           id="path3560" /><path
           d="m 54.756,291.413 c -2.191,-1.98 -5.919,-7.958 -5.919,-9.516 0,-0.787 0.478,-1.422 3.362,-4.363 1.405,-1.421 2.613,-2.784 2.673,-3.015 0.076,-0.25 0.211,-0.445 0.326,-0.445 0.192,0 0.652,-0.402 3.497,-3.111 1.174,-1.154 2.288,-2.116 2.463,-2.172 0.171,-0.06 0.421,-0.329 0.576,-0.597 0.135,-0.269 0.633,-0.752 1.075,-1.058 0.441,-0.307 1.442,-1.192 2.231,-1.96 2.056,-1.979 3.516,-3.228 4.44,-3.767 0.421,-0.251 0.961,-0.614 1.192,-0.807 0.211,-0.212 0.517,-0.368 0.673,-0.368 0.151,0 0.748,-0.306 1.324,-0.689 0.578,-0.385 1.423,-0.905 1.885,-1.173 0.538,-0.326 0.96,-0.75 1.114,-1.153 0.231,-0.558 0.347,-0.616 0.769,-0.518 0.346,0.097 0.653,0 1.018,-0.27 0.29,-0.211 1,-0.616 1.558,-0.903 0.575,-0.29 1.883,-1.078 2.882,-1.73 0.456,-0.298 0.99,-0.639 1.504,-0.961 l -27.106,39.47 c -0.546,-0.18 -1.09,-0.487 -1.537,-0.894"
           style="fill:#e21330;fill-opacity:1;fill-rule:nonzero;stroke:none"
           id="path3562" /><path
           d="m 93.909,271.46 c -6.632,4.423 -10.36,6.901 -10.995,7.249 -0.288,0.172 -1.883,1.248 -3.518,2.383 -7.322,5.054 -7.765,5.285 -10.648,5.668 -0.633,0.097 -1.365,0.33 -1.671,0.559 -0.288,0.229 -0.673,0.404 -0.827,0.404 -0.518,0 -1.653,0.632 -1.767,0.998 -0.06,0.194 -0.212,0.346 -0.327,0.346 -0.425,0 -2.538,1.173 -2.924,1.596 -0.46,0.5 -2.633,1.614 -3.476,1.786 -0.438,0.084 -0.952,0.027 -1.463,-0.142 l 27.106,-39.47 c 0.612,-0.385 1.195,-0.741 1.572,-0.96 0.692,-0.425 1.788,-1.114 2.441,-1.539 0.652,-0.423 2.017,-1.289 3.036,-1.923 1.001,-0.632 2.787,-1.749 3.941,-2.498 1.154,-0.731 2.653,-1.69 3.307,-2.115 0.192,-0.12 0.387,-0.244 0.585,-0.368 l 0.056,25.103 c -1.317,0.86 -2.944,1.935 -4.428,2.923"
           style="fill:#f21d0e;fill-opacity:1;fill-rule:nonzero;stroke:none"
           id="path3564" /></g></g></g></svg>
